<svg width="26" height="26" viewBox="0 0 26 26" fill="none" xmlns="http://www.w3.org/2000/svg">
<mask id="mask0_372_760" style="mask-type:alpha" maskUnits="userSpaceOnUse" x="0" y="0" width="26" height="26">
<rect width="26" height="26" fill="#D9D9D9"/>
</mask>
<g mask="url(#mask0_372_760)">
<path d="M15.1396 4.225C14.9049 7.11389 13.7674 9.58299 11.7271 11.6323C9.68681 13.6816 7.23125 14.8417 4.36042 15.1125C4.05347 15.1486 3.79167 15.0628 3.575 14.8552C3.35833 14.6476 3.25 14.3903 3.25 14.0833C3.25 13.7764 3.34931 13.5191 3.54792 13.3115C3.74653 13.1038 3.99931 12.9819 4.30625 12.9458C6.59931 12.6931 8.55382 11.7497 10.1698 10.1156C11.7858 8.4816 12.7111 6.50903 12.9458 4.19792C12.9819 3.90903 13.1083 3.67882 13.325 3.50729C13.5417 3.33576 13.7944 3.25 14.0833 3.25C14.3903 3.25 14.6521 3.34479 14.8688 3.53438C15.0854 3.72396 15.1757 3.95417 15.1396 4.225ZM10.7792 4.225C10.5625 5.92222 9.84931 7.37569 8.63958 8.58542C7.42986 9.79514 5.97639 10.5174 4.27917 10.7521C3.99028 10.7882 3.74653 10.7069 3.54792 10.5083C3.34931 10.3097 3.25 10.0569 3.25 9.75C3.25 9.46111 3.33576 9.20833 3.50729 8.99167C3.67882 8.775 3.90903 8.63958 4.19792 8.58542C5.33542 8.38681 6.30139 7.87674 7.09583 7.05521C7.89028 6.23368 8.38681 5.25417 8.58542 4.11667C8.62153 3.84583 8.75243 3.63368 8.97813 3.48021C9.20382 3.32674 9.46111 3.25 9.75 3.25C10.0569 3.25 10.3142 3.34479 10.5219 3.53438C10.7295 3.72396 10.8153 3.95417 10.7792 4.225ZM11.9167 22.75C11.6097 22.75 11.3524 22.6417 11.1448 22.425C10.9372 22.2083 10.8514 21.9465 10.8875 21.6396C11.1583 18.7688 12.3184 16.3132 14.3677 14.2729C16.417 12.2326 18.8861 11.0951 21.775 10.8604C22.0458 10.8243 22.276 10.9146 22.4656 11.1313C22.6552 11.3479 22.75 11.6097 22.75 11.9167C22.75 12.2056 22.6642 12.4583 22.4927 12.675C22.3212 12.8917 22.091 13.0181 21.8021 13.0542C19.491 13.2889 17.5184 14.2142 15.8844 15.8302C14.2503 17.4462 13.3069 19.4007 13.0542 21.6938C13.0181 22.0007 12.8962 22.2535 12.6885 22.4521C12.4809 22.6507 12.2236 22.75 11.9167 22.75ZM16.25 22.75C15.9431 22.75 15.6903 22.6507 15.4917 22.4521C15.2931 22.2535 15.2118 22.0097 15.2479 21.7208C15.4826 20.0236 16.2049 18.5701 17.4146 17.3604C18.6243 16.1507 20.0778 15.4375 21.775 15.2208C22.0458 15.1847 22.276 15.2705 22.4656 15.4781C22.6552 15.6858 22.75 15.9431 22.75 16.25C22.75 16.5389 22.6733 16.7962 22.5198 17.0219C22.3663 17.2476 22.1542 17.3785 21.8833 17.4146C20.7458 17.6132 19.7663 18.1097 18.9448 18.9042C18.1233 19.6986 17.6132 20.6646 17.4146 21.8021C17.3604 22.091 17.225 22.3212 17.0083 22.4927C16.7917 22.6642 16.5389 22.75 16.25 22.75ZM5.95833 4.60417C5.95833 4.98333 5.82743 5.30382 5.56563 5.56563C5.30382 5.82743 4.98333 5.95833 4.60417 5.95833C4.225 5.95833 3.90451 5.82743 3.64271 5.56563C3.3809 5.30382 3.25 4.98333 3.25 4.60417C3.25 4.225 3.3809 3.90451 3.64271 3.64271C3.90451 3.3809 4.225 3.25 4.60417 3.25C4.98333 3.25 5.30382 3.3809 5.56563 3.64271C5.82743 3.90451 5.95833 4.225 5.95833 4.60417ZM22.75 21.3958C22.75 21.775 22.6191 22.0955 22.3573 22.3573C22.0955 22.6191 21.775 22.75 21.3958 22.75C21.0167 22.75 20.6962 22.6191 20.4344 22.3573C20.1726 22.0955 20.0417 21.775 20.0417 21.3958C20.0417 21.0167 20.1726 20.6962 20.4344 20.4344C20.6962 20.1726 21.0167 20.0417 21.3958 20.0417C21.775 20.0417 22.0955 20.1726 22.3573 20.4344C22.6191 20.6962 22.75 21.0167 22.75 21.3958Z" fill="#1C1B1F"/>
</g>
</svg>
