<svg width="24" height="24" viewBox="0 0 24 24" fill="none" xmlns="http://www.w3.org/2000/svg">
<path fill-rule="evenodd" clip-rule="evenodd" d="M9.24841 17.6484C9.02338 17.8734 8.71821 17.9998 8.40001 17.9998C8.08181 17.9998 7.77665 17.8734 7.55161 17.6484L2.75161 12.8484C2.52665 12.6234 2.40027 12.3182 2.40027 12C2.40027 11.6818 2.52665 11.3767 2.75161 11.1516L7.55161 6.35163C7.77793 6.13304 8.08106 6.01208 8.39569 6.01482C8.71033 6.01755 9.0113 6.14375 9.23379 6.36624C9.45628 6.58873 9.58249 6.88971 9.58522 7.20434C9.58795 7.51898 9.467 7.8221 9.24841 8.04842L6.49681 10.8H20.4C20.7183 10.8 21.0235 10.9265 21.2485 11.1515C21.4736 11.3765 21.6 11.6818 21.6 12C21.6 12.3183 21.4736 12.6235 21.2485 12.8486C21.0235 13.0736 20.7183 13.2 20.4 13.2H6.49681L9.24841 15.9516C9.47338 16.1767 9.59976 16.4818 9.59976 16.8C9.59976 17.1182 9.47338 17.4234 9.24841 17.6484Z" fill="#2D8AC5"/>
</svg>
