<svg width="26" height="26" viewBox="0 0 26 26" fill="none" xmlns="http://www.w3.org/2000/svg">
<mask id="mask0_372_755" style="mask-type:alpha" maskUnits="userSpaceOnUse" x="0" y="0" width="26" height="26">
<rect width="26" height="26" fill="#D9D9D9"/>
</mask>
<g mask="url(#mask0_372_755)">
<path d="M7.58335 19.5C7.27641 19.5 7.01912 19.3962 6.81148 19.1885C6.60384 18.9809 6.50002 18.7236 6.50002 18.4167V16.25H20.5834V6.49999H22.75C23.057 6.49999 23.3143 6.60381 23.5219 6.81145C23.7295 7.01909 23.8334 7.27638 23.8334 7.58332V21.2062C23.8334 21.6937 23.6122 22.0323 23.1698 22.2219C22.7275 22.4114 22.3347 22.3347 21.9917 21.9917L19.5 19.5H7.58335ZM6.50002 14.0833L4.00835 16.575C3.6653 16.918 3.27259 16.9948 2.83023 16.8052C2.38787 16.6156 2.16669 16.2771 2.16669 15.7896V3.24999C2.16669 2.94305 2.27051 2.68575 2.47815 2.47811C2.68578 2.27048 2.94308 2.16666 3.25002 2.16666H17.3334C17.6403 2.16666 17.8976 2.27048 18.1052 2.47811C18.3129 2.68575 18.4167 2.94305 18.4167 3.24999V13C18.4167 13.3069 18.3129 13.5642 18.1052 13.7719C17.8976 13.9795 17.6403 14.0833 17.3334 14.0833H6.50002ZM16.25 11.9167V4.33332H4.33335V11.9167H16.25Z" fill="#343233"/>
</g>
</svg>
