<svg width="20" height="20" viewBox="0 0 20 20" fill="none" xmlns="http://www.w3.org/2000/svg">
<path d="M2.41667 19.75C1.82083 19.75 1.31076 19.5378 0.886458 19.1135C0.462153 18.6892 0.25 18.1792 0.25 17.5833V6.75C0.25 6.15417 0.462153 5.6441 0.886458 5.21979C1.31076 4.79549 1.82083 4.58333 2.41667 4.58333H4.58333V2.41667C4.58333 1.82083 4.79549 1.31076 5.21979 0.886458C5.6441 0.462153 6.15417 0.25 6.75 0.25H13.25C13.8458 0.25 14.3559 0.462153 14.7802 0.886458C15.2045 1.31076 15.4167 1.82083 15.4167 2.41667V8.91667H17.5833C18.1792 8.91667 18.6892 9.12882 19.1135 9.55313C19.5378 9.97743 19.75 10.4875 19.75 11.0833V17.5833C19.75 18.1792 19.5378 18.6892 19.1135 19.1135C18.6892 19.5378 18.1792 19.75 17.5833 19.75H11.0833V15.4167H8.91667V19.75H2.41667ZM2.41667 17.5833H4.58333V15.4167H2.41667V17.5833ZM2.41667 13.25H4.58333V11.0833H2.41667V13.25ZM2.41667 8.91667H4.58333V6.75H2.41667V8.91667ZM6.75 13.25H8.91667V11.0833H6.75V13.25ZM6.75 8.91667H8.91667V6.75H6.75V8.91667ZM6.75 4.58333H8.91667V2.41667H6.75V4.58333ZM11.0833 13.25H13.25V11.0833H11.0833V13.25ZM11.0833 8.91667H13.25V6.75H11.0833V8.91667ZM11.0833 4.58333H13.25V2.41667H11.0833V4.58333ZM15.4167 17.5833H17.5833V15.4167H15.4167V17.5833ZM15.4167 13.25H17.5833V11.0833H15.4167V13.25Z" fill="#343233"/>
</svg>
