<svg width="26" height="26" viewBox="0 0 26 26" fill="none" xmlns="http://www.w3.org/2000/svg">
<mask id="mask0_372_747" style="mask-type:alpha" maskUnits="userSpaceOnUse" x="0" y="0" width="26" height="26">
<rect width="26" height="26" fill="#D9D9D9"/>
</mask>
<g mask="url(#mask0_372_747)">
<path d="M5.41669 24.9167C5.10974 24.9167 4.85245 24.8129 4.64481 24.6052C4.43717 24.3976 4.33335 24.1403 4.33335 23.8333C4.33335 23.5264 4.43717 23.2691 4.64481 23.0615C4.85245 22.8538 5.10974 22.75 5.41669 22.75H20.5834C20.8903 22.75 21.1476 22.8538 21.3552 23.0615C21.5629 23.2691 21.6667 23.5264 21.6667 23.8333C21.6667 24.1403 21.5629 24.3976 21.3552 24.6052C21.1476 24.8129 20.8903 24.9167 20.5834 24.9167H5.41669ZM5.41669 3.25001C5.10974 3.25001 4.85245 3.14619 4.64481 2.93855C4.43717 2.73091 4.33335 2.47362 4.33335 2.16668C4.33335 1.85973 4.43717 1.60244 4.64481 1.3948C4.85245 1.18716 5.10974 1.08334 5.41669 1.08334H20.5834C20.8903 1.08334 21.1476 1.18716 21.3552 1.3948C21.5629 1.60244 21.6667 1.85973 21.6667 2.16668C21.6667 2.47362 21.5629 2.73091 21.3552 2.93855C21.1476 3.14619 20.8903 3.25001 20.5834 3.25001H5.41669ZM13 14.0833C13.9028 14.0833 14.6702 13.7674 15.3021 13.1354C15.934 12.5035 16.25 11.7361 16.25 10.8333C16.25 9.93056 15.934 9.1632 15.3021 8.53126C14.6702 7.89932 13.9028 7.58334 13 7.58334C12.0972 7.58334 11.3299 7.89932 10.6979 8.53126C10.066 9.1632 9.75002 9.93056 9.75002 10.8333C9.75002 11.7361 10.066 12.5035 10.6979 13.1354C11.3299 13.7674 12.0972 14.0833 13 14.0833ZM4.33335 21.6667C3.73752 21.6667 3.22745 21.4545 2.80315 21.0302C2.37884 20.6059 2.16669 20.0958 2.16669 19.5V6.50001C2.16669 5.90418 2.37884 5.39411 2.80315 4.9698C3.22745 4.5455 3.73752 4.33334 4.33335 4.33334H21.6667C22.2625 4.33334 22.7726 4.5455 23.1969 4.9698C23.6212 5.39411 23.8334 5.90418 23.8334 6.50001V19.5C23.8334 20.0958 23.6212 20.6059 23.1969 21.0302C22.7726 21.4545 22.2625 21.6667 21.6667 21.6667H4.33335ZM6.22919 19.5C7.04169 18.4889 8.02571 17.6945 9.18127 17.1167C10.3368 16.5389 11.6097 16.25 13 16.25C14.3903 16.25 15.6632 16.5389 16.8188 17.1167C17.9743 17.6945 18.9584 18.4889 19.7709 19.5H21.6667V6.50001H4.33335V19.5H6.22919ZM9.42502 19.5H16.575C16.0514 19.1389 15.4872 18.8681 14.8823 18.6875C14.2775 18.507 13.65 18.4167 13 18.4167C12.35 18.4167 11.7226 18.507 11.1177 18.6875C10.5129 18.8681 9.94863 19.1389 9.42502 19.5ZM13 11.9167C12.6931 11.9167 12.4358 11.8129 12.2281 11.6052C12.0205 11.3976 11.9167 11.1403 11.9167 10.8333C11.9167 10.5264 12.0205 10.2691 12.2281 10.0615C12.4358 9.85383 12.6931 9.75001 13 9.75001C13.307 9.75001 13.5643 9.85383 13.7719 10.0615C13.9795 10.2691 14.0834 10.5264 14.0834 10.8333C14.0834 11.1403 13.9795 11.3976 13.7719 11.6052C13.5643 11.8129 13.307 11.9167 13 11.9167Z" fill="#343233"/>
</g>
</svg>
