<svg width="12" height="12" viewBox="0 0 12 12" fill="none" xmlns="http://www.w3.org/2000/svg">
<g opacity="0.5">
<path fill-rule="evenodd" clip-rule="evenodd" d="M3.17592 4.3758C3.28843 4.26332 3.44102 4.20013 3.60012 4.20013C3.75921 4.20013 3.9118 4.26332 4.02432 4.3758L6.00012 6.3516L7.97592 4.3758C8.03126 4.31849 8.09747 4.27278 8.17067 4.24134C8.24388 4.20989 8.32261 4.19334 8.40228 4.19265C8.48194 4.19196 8.56095 4.20714 8.63469 4.23731C8.70843 4.26748 8.77542 4.31203 8.83175 4.36836C8.88809 4.4247 8.93264 4.49169 8.96281 4.56543C8.99298 4.63917 9.00816 4.71817 9.00747 4.79784C9.00677 4.87751 8.99022 4.95624 8.95878 5.02944C8.92733 5.10264 8.88162 5.16885 8.82432 5.2242L6.42432 7.6242C6.3118 7.73668 6.15921 7.79987 6.00012 7.79987C5.84102 7.79987 5.68843 7.73668 5.57592 7.6242L3.17592 5.2242C3.06343 5.11168 3.00024 4.9591 3.00024 4.8C3.00024 4.6409 3.06343 4.48832 3.17592 4.3758Z" fill="#343233"/>
</g>
</svg>
