<svg width="26" height="26" viewBox="0 0 26 26" fill="none" xmlns="http://www.w3.org/2000/svg">
<mask id="mask0_372_428" style="mask-type:alpha" maskUnits="userSpaceOnUse" x="0" y="0" width="26" height="26">
<rect width="26" height="26" fill="#D9D9D9"/>
</mask>
<g mask="url(#mask0_372_428)">
<path d="M6.33758 18.525C7.25842 17.8208 8.28758 17.2656 9.42508 16.8594C10.5626 16.4531 11.7542 16.25 13.0001 16.25C14.2459 16.25 15.4376 16.4531 16.5751 16.8594C17.7126 17.2656 18.7417 17.8208 19.6626 18.525C20.2945 17.7847 20.7865 16.9451 21.1386 16.0062C21.4907 15.0674 21.6667 14.0653 21.6667 13C21.6667 10.5986 20.8227 8.55381 19.1345 6.86561C17.4463 5.17742 15.4015 4.33332 13.0001 4.33332C10.5987 4.33332 8.5539 5.17742 6.86571 6.86561C5.17751 8.55381 4.33341 10.5986 4.33341 13C4.33341 14.0653 4.50946 15.0674 4.86154 16.0062C5.21362 16.9451 5.70564 17.7847 6.33758 18.525ZM13.0001 14.0833C11.9348 14.0833 11.0365 13.7177 10.3053 12.9864C9.57404 12.2552 9.20842 11.3569 9.20842 10.2917C9.20842 9.22638 9.57404 8.32812 10.3053 7.59687C11.0365 6.86562 11.9348 6.49999 13.0001 6.49999C14.0654 6.49999 14.9636 6.86562 15.6949 7.59687C16.4261 8.32812 16.7917 9.22638 16.7917 10.2917C16.7917 11.3569 16.4261 12.2552 15.6949 12.9864C14.9636 13.7177 14.0654 14.0833 13.0001 14.0833ZM13.0001 23.8333C11.5015 23.8333 10.0931 23.5489 8.77508 22.9802C7.45703 22.4114 6.3105 21.6396 5.3355 20.6646C4.3605 19.6896 3.58862 18.543 3.01987 17.225C2.45112 15.9069 2.16675 14.4986 2.16675 13C2.16675 11.5014 2.45112 10.093 3.01987 8.77499C3.58862 7.45693 4.3605 6.31041 5.3355 5.33541C6.3105 4.36041 7.45703 3.58853 8.77508 3.01978C10.0931 2.45103 11.5015 2.16666 13.0001 2.16666C14.4987 2.16666 15.907 2.45103 17.2251 3.01978C18.5431 3.58853 19.6897 4.36041 20.6647 5.33541C21.6397 6.31041 22.4115 7.45693 22.9803 8.77499C23.549 10.093 23.8334 11.5014 23.8334 13C23.8334 14.4986 23.549 15.9069 22.9803 17.225C22.4115 18.543 21.6397 19.6896 20.6647 20.6646C19.6897 21.6396 18.5431 22.4114 17.2251 22.9802C15.907 23.5489 14.4987 23.8333 13.0001 23.8333ZM13.0001 21.6667C13.957 21.6667 14.8598 21.5267 15.7084 21.2469C16.557 20.967 17.3334 20.5653 18.0376 20.0417C17.3334 19.518 16.557 19.1163 15.7084 18.8364C14.8598 18.5566 13.957 18.4167 13.0001 18.4167C12.0431 18.4167 11.1404 18.5566 10.2917 18.8364C9.44314 19.1163 8.66675 19.518 7.96258 20.0417C8.66675 20.5653 9.44314 20.967 10.2917 21.2469C11.1404 21.5267 12.0431 21.6667 13.0001 21.6667ZM13.0001 11.9167C13.4695 11.9167 13.8577 11.7632 14.1647 11.4562C14.4716 11.1493 14.6251 10.7611 14.6251 10.2917C14.6251 9.82221 14.4716 9.43402 14.1647 9.12707C13.8577 8.82013 13.4695 8.66666 13.0001 8.66666C12.5306 8.66666 12.1424 8.82013 11.8355 9.12707C11.5286 9.43402 11.3751 9.82221 11.3751 10.2917C11.3751 10.7611 11.5286 11.1493 11.8355 11.4562C12.1424 11.7632 12.5306 11.9167 13.0001 11.9167Z" fill="#343233"/>
</g>
</svg>
