<svg width="16" height="16" viewBox="0 0 16 16" fill="none" xmlns="http://www.w3.org/2000/svg">
<path d="M1.99984 8C1.2665 8 0.666504 7.4 0.666504 6.66667V3.33333C0.666504 2.6 1.2665 2 1.99984 2H7.33317C8.0665 2 8.6665 2.6 8.6665 3.33333V6.66667C8.6665 7.4 8.0665 8 7.33317 8H5.99984V10L3.99984 8H1.99984ZM13.9998 12C14.7332 12 15.3332 11.4 15.3332 10.6667V7.33333C15.3332 6.6 14.7332 6 13.9998 6H9.99984V6.66667C9.99984 8.13333 8.79984 9.33333 7.33317 9.33333V10.6667C7.33317 11.4 7.93317 12 8.6665 12H9.99984V14L11.9998 12H13.9998Z" fill="#343233"/>
</svg>
