<svg width="16" height="16" viewBox="0 0 16 16" fill="none" xmlns="http://www.w3.org/2000/svg">
<mask id="mask0_372_125" style="mask-type:alpha" maskUnits="userSpaceOnUse" x="0" y="0" width="16" height="16">
<rect width="16" height="16" fill="#D9D9D9"/>
</mask>
<g mask="url(#mask0_372_125)">
<path d="M13.4333 8.66667H6C5.81111 8.66667 5.65278 8.60278 5.525 8.475C5.39722 8.34722 5.33333 8.18889 5.33333 8C5.33333 7.81111 5.39722 7.65278 5.525 7.525C5.65278 7.39722 5.81111 7.33333 6 7.33333H13.4333L12.8667 6.76667C12.7333 6.63333 12.6694 6.47778 12.675 6.3C12.6806 6.12222 12.7444 5.96667 12.8667 5.83333C13 5.7 13.1583 5.63056 13.3417 5.625C13.525 5.61944 13.6833 5.68333 13.8167 5.81667L15.5333 7.53333C15.6667 7.66667 15.7333 7.82222 15.7333 8C15.7333 8.17778 15.6667 8.33333 15.5333 8.46667L13.8167 10.1833C13.6833 10.3167 13.525 10.3806 13.3417 10.375C13.1583 10.3694 13 10.3 12.8667 10.1667C12.7444 10.0333 12.6806 9.87778 12.675 9.7C12.6694 9.52222 12.7333 9.36667 12.8667 9.23333L13.4333 8.66667ZM10 5.33333V3.33333H3.33333V12.6667H10V10.6667C10 10.4778 10.0639 10.3194 10.1917 10.1917C10.3194 10.0639 10.4778 10 10.6667 10C10.8556 10 11.0139 10.0639 11.1417 10.1917C11.2694 10.3194 11.3333 10.4778 11.3333 10.6667V12.6667C11.3333 13.0333 11.2028 13.3472 10.9417 13.6083C10.6806 13.8694 10.3667 14 10 14H3.33333C2.96667 14 2.65278 13.8694 2.39167 13.6083C2.13056 13.3472 2 13.0333 2 12.6667V3.33333C2 2.96667 2.13056 2.65278 2.39167 2.39167C2.65278 2.13056 2.96667 2 3.33333 2H10C10.3667 2 10.6806 2.13056 10.9417 2.39167C11.2028 2.65278 11.3333 2.96667 11.3333 3.33333V5.33333C11.3333 5.52222 11.2694 5.68056 11.1417 5.80833C11.0139 5.93611 10.8556 6 10.6667 6C10.4778 6 10.3194 5.93611 10.1917 5.80833C10.0639 5.68056 10 5.52222 10 5.33333Z" fill="#DA1539"/>
</g>
</svg>
