<svg width="26" height="26" viewBox="0 0 26 26" fill="none" xmlns="http://www.w3.org/2000/svg">
<mask id="mask0_372_766" style="mask-type:alpha" maskUnits="userSpaceOnUse" x="0" y="0" width="26" height="26">
<rect width="26" height="26" fill="#D9D9D9"/>
</mask>
<g mask="url(#mask0_372_766)">
<path d="M13 13C11.8083 13 10.7882 12.5757 9.93956 11.7271C9.09095 10.8785 8.66665 9.85833 8.66665 8.66666C8.66665 7.47499 9.09095 6.45486 9.93956 5.60624C10.7882 4.75763 11.8083 4.33333 13 4.33333C14.1916 4.33333 15.2118 4.75763 16.0604 5.60624C16.909 6.45486 17.3333 7.47499 17.3333 8.66666C17.3333 9.85833 16.909 10.8785 16.0604 11.7271C15.2118 12.5757 14.1916 13 13 13ZM4.33331 19.5V18.6333C4.33331 18.0194 4.4913 17.4552 4.80727 16.9406C5.12324 16.426 5.54304 16.0333 6.06665 15.7625C7.18609 15.2028 8.32359 14.783 9.47915 14.5031C10.6347 14.2233 11.8083 14.0833 13 14.0833C14.1916 14.0833 15.3653 14.2233 16.5208 14.5031C17.6764 14.783 18.8139 15.2028 19.9333 15.7625C20.4569 16.0333 20.8767 16.426 21.1927 16.9406C21.5087 17.4552 21.6666 18.0194 21.6666 18.6333V19.5C21.6666 20.0958 21.4545 20.6059 21.0302 21.0302C20.6059 21.4545 20.0958 21.6667 19.5 21.6667H6.49998C5.90415 21.6667 5.39408 21.4545 4.96977 21.0302C4.54547 20.6059 4.33331 20.0958 4.33331 19.5ZM6.49998 19.5H19.5V18.6333C19.5 18.4347 19.4503 18.2542 19.351 18.0917C19.2517 17.9292 19.1208 17.8028 18.9583 17.7125C17.9833 17.225 16.9993 16.8594 16.0062 16.6156C15.0132 16.3719 14.0111 16.25 13 16.25C11.9889 16.25 10.9868 16.3719 9.99373 16.6156C9.00067 16.8594 8.01665 17.225 7.04165 17.7125C6.87915 17.8028 6.74824 17.9292 6.64894 18.0917C6.54963 18.2542 6.49998 18.4347 6.49998 18.6333V19.5ZM13 10.8333C13.5958 10.8333 14.1059 10.6212 14.5302 10.1969C14.9545 9.77256 15.1666 9.26249 15.1666 8.66666C15.1666 8.07083 14.9545 7.56076 14.5302 7.13645C14.1059 6.71215 13.5958 6.49999 13 6.49999C12.4041 6.49999 11.8941 6.71215 11.4698 7.13645C11.0455 7.56076 10.8333 8.07083 10.8333 8.66666C10.8333 9.26249 11.0455 9.77256 11.4698 10.1969C11.8941 10.6212 12.4041 10.8333 13 10.8333Z" fill="#343233"/>
</g>
</svg>
