<svg width="34" height="34" viewBox="0 0 34 34" fill="none" xmlns="http://www.w3.org/2000/svg">
<rect width="34" height="34" rx="17" fill="#F7F7F7"/>
<path d="M16.9996 12.2C16.3631 12.2 15.7526 11.9471 15.3026 11.4971C14.8525 11.047 14.5996 10.4365 14.5996 9.79999C14.5996 9.16347 14.8525 8.55302 15.3026 8.10294C15.7526 7.65285 16.3631 7.39999 16.9996 7.39999C17.6361 7.39999 18.2466 7.65285 18.6967 8.10294C19.1468 8.55302 19.3996 9.16347 19.3996 9.79999C19.3996 10.4365 19.1468 11.047 18.6967 11.4971C18.2466 11.9471 17.6361 12.2 16.9996 12.2ZM16.9996 19.4C16.3631 19.4 15.7526 19.1471 15.3026 18.6971C14.8525 18.247 14.5996 17.6365 14.5996 17C14.5996 16.3635 14.8525 15.753 15.3026 15.3029C15.7526 14.8529 16.3631 14.6 16.9996 14.6C17.6361 14.6 18.2466 14.8529 18.6967 15.3029C19.1468 15.753 19.3996 16.3635 19.3996 17C19.3996 17.6365 19.1468 18.247 18.6967 18.6971C18.2466 19.1471 17.6361 19.4 16.9996 19.4ZM16.9996 26.6C16.3631 26.6 15.7526 26.3471 15.3026 25.8971C14.8525 25.447 14.5996 24.8365 14.5996 24.2C14.5996 23.5635 14.8525 22.953 15.3026 22.5029C15.7526 22.0529 16.3631 21.8 16.9996 21.8C17.6361 21.8 18.2466 22.0529 18.6967 22.5029C19.1468 22.953 19.3996 23.5635 19.3996 24.2C19.3996 24.8365 19.1468 25.447 18.6967 25.8971C18.2466 26.3471 17.6361 26.6 16.9996 26.6Z" fill="#2D8AC5"/>
</svg>
