<svg width="16" height="16" viewBox="0 0 16 16" fill="none" xmlns="http://www.w3.org/2000/svg">
<path fill-rule="evenodd" clip-rule="evenodd" d="M8.00016 1.33334C4.31816 1.33334 1.3335 4.31801 1.3335 8.00001C1.3335 9.26001 1.6835 10.44 2.29216 11.4453L1.6975 13.4667C1.66335 13.5827 1.66111 13.7058 1.69099 13.8231C1.72088 13.9403 1.78179 14.0473 1.86734 14.1328C1.95288 14.2184 2.05988 14.2793 2.17711 14.3092C2.29433 14.3391 2.41744 14.3368 2.5335 14.3027L4.55483 13.708C5.59395 14.3367 6.78564 14.6683 8.00016 14.6667C11.6822 14.6667 14.6668 11.682 14.6668 8.00001C14.6668 4.31801 11.6822 1.33334 8.00016 1.33334ZM6.49216 9.50868C7.84083 10.8567 9.12816 11.0347 9.58283 11.0513C10.2742 11.0767 10.9475 10.5487 11.2095 9.93601C11.2426 9.85979 11.2546 9.77609 11.2443 9.69365C11.2339 9.61121 11.2017 9.53306 11.1508 9.46734C10.7855 9.00068 10.2915 8.66534 9.80883 8.33201C9.70805 8.26233 9.58421 8.23438 9.46328 8.25402C9.34234 8.27365 9.23371 8.33936 9.16016 8.43734L8.76016 9.04734C8.73913 9.08014 8.70636 9.10365 8.66856 9.11307C8.63076 9.12249 8.59079 9.1171 8.55683 9.09801C8.2855 8.94268 7.89016 8.67868 7.60616 8.39468C7.32216 8.11068 7.07416 7.73334 6.93483 7.47934C6.91755 7.44707 6.91256 7.40964 6.92077 7.37397C6.92899 7.33829 6.94985 7.30681 6.9795 7.28534L7.5955 6.82801C7.68341 6.75157 7.74014 6.64548 7.75489 6.52992C7.76964 6.41436 7.74138 6.29742 7.6755 6.20134C7.37683 5.76401 7.02883 5.20801 6.52416 4.83934C6.45903 4.79215 6.38274 4.76272 6.30278 4.75395C6.22283 4.74518 6.14197 4.75738 6.06816 4.78934C5.45483 5.05201 4.92416 5.72534 4.9495 6.41801C4.96616 6.87268 5.14416 8.16001 6.49216 9.50868Z" fill="#70B250"/>
</svg>
